<svg xmlns="http://www.w3.org/2000/svg" width="231.219" height="41.252" viewBox="0 0 231.219 41.252">
  <g id="main-logo" transform="translate(0.442 0.489)">
    <text id="Bootcampers" transform="translate(19.776 37.763)" fill="#4c5eff" font-size="24" font-family="Heisman"><tspan x="0" y="0">Boot</tspan><tspan y="0" fill="#191919">campers</tspan></text>
    <g id="Group_56" data-name="Group 56" transform="matrix(1, -0.017, 0.017, 1, 0, 0.531)">
      <g id="Subtraction_1" data-name="Subtraction 1" transform="translate(12.5 13.5)" fill="#4c5eff">
        <path d="M 1.88044810295105 14.65234470367432 C 1.869229912757874 14.63456153869629 1.858097672462463 14.61678218841553 1.847004532814026 14.59892749786377 C 0.9657745361328125 13.18109703063965 0.5000045299530029 11.56196784973145 0.5000045299530029 9.916507720947266 C 0.5000045299530029 8.649567604064941 0.7673545479774475 7.420697212219238 1.29462456703186 6.26402759552002 C 1.805054545402527 5.143827438354492 2.536834478378296 4.136947631835938 3.469684600830078 3.271297454833984 C 4.404674530029297 2.403297424316406 5.494384288787842 1.721477389335632 6.708614349365234 1.244707465171814 C 7.967494487762451 0.7505574226379395 9.305274963378906 0.4999974071979523 10.68475437164307 0.4999974071979523 C 11.38669013977051 0.4999974071979523 12.07994842529297 0.5662124752998352 12.7554235458374 0.6953309774398804 C 12.63526916503906 0.6917360424995422 12.51509094238281 0.6899374127388 12.39459419250488 0.6899374127388 C 6.227264404296875 0.6899374127388 1.209774494171143 5.362547397613525 1.209774494171143 11.10595703125 C 1.209774494171143 12.32554817199707 1.441626667976379 13.52522850036621 1.88044810295105 14.65234470367432 Z" stroke="none"/>
        <path d="M 1.336183905601501 7.57722282409668 C 1.991678595542908 5.789501190185547 3.131229400634766 4.209091186523438 4.607462406158447 2.973986625671387 C 4.329949855804443 3.180544853210449 4.063852310180664 3.401942729949951 3.809794425964355 3.637797355651855 C 2.925634622573853 4.458277225494385 2.232504606246948 5.41159725189209 1.749584555625916 6.471427440643311 C 1.584769487380981 6.832973957061768 1.446899175643921 7.201915740966797 1.336183905601501 7.57722282409668 M 5.163394451141357 18.40771675109863 C 3.617854595184326 17.54003715515137 2.324214458465576 16.31445693969727 1.422304511070251 14.86279773712158 C 0.4918245077133179 13.36572742462158 4.521484243014129e-06 11.65478706359863 4.521484243014129e-06 9.916507720947266 C 4.521484243014129e-06 8.577637672424316 0.2825345098972321 7.278807640075684 0.8396645188331604 6.056637287139893 C 1.377864480018616 4.875487327575684 2.148254632949829 3.815427303314209 3.129574537277222 2.904787540435791 C 4.111024379730225 1.993657469749451 5.253724575042725 1.278807401657104 6.525874614715576 0.779297411441803 C 7.843204498291016 0.262207418680191 9.242494583129883 -2.578125076979632e-06 10.68475437164307 -2.578125076979632e-06 C 13.37066459655762 -2.578125076979632e-06 15.93780422210693 0.928227424621582 17.91326522827148 2.613767385482788 C 16.25329399108887 1.682617425918579 14.34515476226807 1.189937472343445 12.39459419250488 1.189937472343445 C 6.502994537353516 1.189937472343445 1.709774494171143 5.638187408447266 1.709774494171143 11.10595703125 C 1.709774494171143 13.87255764007568 2.968814611434937 16.53368759155273 5.16388463973999 18.40673828125 L 5.163394451141357 18.40771675109863 Z" stroke="none" fill="#4c5eff"/>
      </g>
      <line id="Line_1" data-name="Line 1" x1="4.557" y2="1.245" transform="translate(6 27.755)" fill="none" stroke="#4c5eff" stroke-linecap="round" stroke-width="1"/>
      <line id="Line_2" data-name="Line 2" x1="8.557" y1="0.582" transform="translate(2 21)" fill="none" stroke="#4c5eff" stroke-linecap="round" stroke-width="1"/>
      <line id="Line_3" data-name="Line 3" x1="12.5" y1="3.792" transform="translate(0 11)" fill="none" stroke="#4c5eff" stroke-linecap="round" stroke-width="1"/>
      <line id="Line_4" data-name="Line 4" x1="12.307" y1="10.792" transform="translate(5)" fill="none" stroke="#4c5eff" stroke-linecap="round" stroke-width="1"/>
    </g>
  </g>
</svg>
